<?xml version="1.0" encoding="UTF-8" standalone="no"?>
<!DOCTYPE svg PUBLIC "-//W3C//DTD SVG 1.1//EN"
 "http://www.w3.org/Graphics/SVG/1.1/DTD/svg11.dtd">
<!-- Generated by graphviz version 2.28.0 (20120118.1605)
 -->
<!-- Title: LayoutValidation Pages: 1 -->
<svg width="294pt" height="204pt"
 viewBox="0.00 0.00 294.43 204.43" xmlns="http://www.w3.org/2000/svg" xmlns:xlink="http://www.w3.org/1999/xlink">
<g id="graph1" class="graph" transform="scale(1 1) rotate(0) translate(4 200.428)">
<title>LayoutValidation</title>
<polygon fill="white" stroke="white" points="-4,5 -4,-200.428 291.428,-200.428 291.428,5 -4,5"/>
<!-- state1 -->
<g id="node1" class="node"><title>state1</title>
<ellipse fill="lightcoral" stroke="lightcoral" cx="98.2141" cy="-18" rx="18" ry="18"/>
<text text-anchor="middle" x="98.2141" y="-15.8336" font-family="Verdana" font-size="8.00">1</text>
</g>
<!-- state2 -->
<g id="node2" class="node"><title>state2</title>
<ellipse fill="orange" stroke="orange" cx="18" cy="-98.2141" rx="18" ry="18"/>
<text text-anchor="middle" x="18" y="-96.0477" font-family="Verdana" font-size="8.00">2</text>
</g>
<!-- state1&#45;&gt;state2 -->
<g id="edge8" class="edge"><title>state1&#45;&gt;state2</title>
<path fill="none" stroke="black" d="M85.3263,-30.8878C72.5794,-43.6347 52.8872,-63.3269 38.0868,-78.1273"/>
<polygon fill="black" stroke="black" points="35.452,-75.8123 30.8558,-85.3583 40.4018,-80.7621 35.452,-75.8123"/>
<text text-anchor="middle" x="71.7066" y="-62.8827" font-family="Verdana" font-size="6.00">validate()</text>
</g>
<!-- state3 -->
<g id="node3" class="node"><title>state3</title>
<ellipse fill="#caff70" stroke="#caff70" cx="98.2141" cy="-178.428" rx="18" ry="18"/>
<text text-anchor="middle" x="98.2141" y="-176.262" font-family="Verdana" font-size="8.00">3</text>
</g>
<!-- state2&#45;&gt;state3 -->
<g id="edge10" class="edge"><title>state2&#45;&gt;state3</title>
<path fill="none" stroke="black" d="M30.8878,-111.102C43.6347,-123.849 63.3269,-143.541 78.1273,-158.341"/>
<polygon fill="black" stroke="black" points="75.8123,-160.976 85.3583,-165.572 80.7621,-156.026 75.8123,-160.976"/>
<text text-anchor="middle" x="43.5075" y="-144.097" font-family="Verdana" font-size="6.00">validated()</text>
</g>
<!-- choise -->
<g id="node5" class="node"><title>choise</title>
<polygon fill="yellow" stroke="yellow" points="178.428,-116.214 151.428,-98.2141 178.428,-80.2141 205.428,-98.2141 178.428,-116.214"/>
</g>
<!-- state3&#45;&gt;choise -->
<g id="edge2" class="edge"><title>state3&#45;&gt;choise</title>
<path fill="none" stroke="black" d="M111.102,-165.54C124.377,-152.266 145.184,-131.458 160.154,-116.488"/>
<polygon fill="black" stroke="black" points="162.784,-118.808 167.38,-109.262 157.834,-113.858 162.784,-118.808"/>
<text text-anchor="middle" x="146.628" y="-150.389" font-family="Verdana" font-size="6.00">prop changed</text>
</g>
<!-- state4 -->
<g id="node4" class="node"><title>state4</title>
<ellipse fill="lightcoral" stroke="lightcoral" cx="268.428" cy="-98.2141" rx="18" ry="18"/>
<text text-anchor="middle" x="268.428" y="-96.0477" font-family="Verdana" font-size="8.00">4</text>
</g>
<!-- choise&#45;&gt;state1 -->
<g id="edge4" class="edge"><title>choise&#45;&gt;state1</title>
<path fill="none" stroke="black" d="M167.61,-87.3961C154.968,-74.754 133.79,-53.5754 118.147,-37.9328"/>
<polygon fill="black" stroke="black" points="120.52,-35.3562 110.974,-30.76 115.57,-40.306 120.52,-35.3562"/>
<text text-anchor="middle" x="131.879" y="-72.0396" font-family="Verdana" font-size="6.00">parent stays valid</text>
</g>
<!-- choise&#45;&gt;state4 -->
<g id="edge6" class="edge"><title>choise&#45;&gt;state4</title>
<path fill="none" stroke="black" d="M205.431,-98.2141C216.418,-98.2141 229.118,-98.2141 240.224,-98.2141"/>
<polygon fill="black" stroke="black" points="240.276,-101.714 250.276,-98.2141 240.276,-94.7142 240.276,-101.714"/>
<text text-anchor="middle" x="222.828" y="-91.5893" font-family="Verdana" font-size="6.00">parent invalid</text>
</g>
</g>
</svg>
