<?xml version="1.0" encoding="UTF-8" standalone="no"?>
<!DOCTYPE svg PUBLIC "-//W3C//DTD SVG 1.1//EN"
 "http://www.w3.org/Graphics/SVG/1.1/DTD/svg11.dtd">
<!-- Generated by graphviz version 2.28.0 (20120118.1605)
 -->
<!-- Title: LayoutActors Pages: 1 -->
<svg width="455pt" height="244pt"
 viewBox="0.00 0.00 455.00 244.00" xmlns="http://www.w3.org/2000/svg" xmlns:xlink="http://www.w3.org/1999/xlink">
<g id="graph1" class="graph" transform="scale(1 1) rotate(0) translate(4 240)">
<title>LayoutActors</title>
<polygon fill="white" stroke="white" points="-4,5 -4,-240 452,-240 452,5 -4,5"/>
<g id="graph2" class="cluster"><title>cluster_0</title>
<polygon fill="lightgrey" stroke="lightgrey" points="8,-80 8,-228 164,-228 164,-80 8,-80"/>
<text text-anchor="middle" x="86" y="-214" font-family="Verdana" font-size="10.00">Application</text>
</g>
<g id="graph3" class="cluster"><title>cluster_1</title>
<polygon fill="none" stroke="blue" points="172,-8 172,-154 439,-154 439,-8 172,-8"/>
<text text-anchor="middle" x="305.5" y="-140" font-family="Verdana" font-size="10.00">LayoutClients</text>
</g>
<!-- contA -->
<g id="node2" class="node"><title>contA</title>
<ellipse fill="white" stroke="white" cx="120" cy="-180" rx="35.3827" ry="18"/>
<text text-anchor="middle" x="120" y="-177.834" font-family="Verdana" font-size="8.00">MenuBar A</text>
</g>
<!-- buttonB -->
<g id="node3" class="node"><title>buttonB</title>
<ellipse fill="white" stroke="white" cx="46" cy="-106" rx="30.2267" ry="18"/>
<text text-anchor="middle" x="46" y="-103.834" font-family="Verdana" font-size="8.00">Button B</text>
</g>
<!-- contA&#45;&gt;buttonB -->
<g id="edge3" class="edge"><title>contA&#45;&gt;buttonB</title>
<path fill="none" stroke="black" d="M98.9533,-165.302C94.1801,-161.837 89.2649,-157.967 85,-154 77.4739,-147 70.0554,-138.562 63.7423,-130.779"/>
<polygon fill="black" stroke="black" points="66.3091,-128.381 57.3728,-122.69 60.8093,-132.712 66.3091,-128.381"/>
</g>
<!-- buttonC -->
<g id="node4" class="node"><title>buttonC</title>
<ellipse fill="white" stroke="white" cx="125" cy="-106" rx="30.3172" ry="18"/>
<text text-anchor="middle" x="125" y="-103.834" font-family="Verdana" font-size="8.00">Button C</text>
</g>
<!-- contA&#45;&gt;buttonC -->
<g id="edge5" class="edge"><title>contA&#45;&gt;buttonC</title>
<path fill="none" stroke="black" d="M121.185,-161.937C121.75,-153.807 122.439,-143.876 123.076,-134.705"/>
<polygon fill="black" stroke="black" points="126.588,-134.659 123.789,-124.441 119.604,-134.174 126.588,-134.659"/>
</g>
<!-- layoutA -->
<g id="node8" class="node"><title>layoutA</title>
<ellipse fill="lightgrey" stroke="black" cx="250" cy="-106" rx="30.3555" ry="18"/>
<text text-anchor="middle" x="250" y="-103.834" font-family="Verdana" font-size="8.00">Layout A</text>
</g>
<!-- contA&#45;&gt;layoutA -->
<g id="edge14" class="edge"><title>contA&#45;&gt;layoutA</title>
<path fill="none" stroke="black" stroke-dasharray="5,2" d="M144.028,-166.727C151.72,-162.733 160.25,-158.237 168,-154 189.02,-142.508 212.735,-128.837 229.235,-119.21"/>
</g>
<!-- layoutB -->
<g id="node9" class="node"><title>layoutB</title>
<ellipse fill="lightgrey" stroke="black" cx="211" cy="-34" rx="30.3695" ry="18"/>
<text text-anchor="middle" x="211" y="-31.8336" font-family="Verdana" font-size="8.00">Layout B</text>
</g>
<!-- buttonB&#45;&gt;layoutB -->
<g id="edge16" class="edge"><title>buttonB&#45;&gt;layoutB</title>
<path fill="none" stroke="black" stroke-dasharray="5,2" d="M64.9347,-91.6405C71.1536,-87.5886 78.2143,-83.3327 85,-80 117.942,-63.821 158.217,-50.4715 184.225,-42.6218"/>
</g>
<!-- layoutC -->
<g id="node10" class="node"><title>layoutC</title>
<ellipse fill="lightgrey" stroke="black" cx="290" cy="-34" rx="30.4601" ry="18"/>
<text text-anchor="middle" x="290" y="-31.8336" font-family="Verdana" font-size="8.00">Layout C</text>
</g>
<!-- buttonC&#45;&gt;layoutC -->
<g id="edge18" class="edge"><title>buttonC&#45;&gt;layoutC</title>
<path fill="none" stroke="black" stroke-dasharray="5,2" d="M145.121,-92.1984C152.194,-87.9977 160.3,-83.5112 168,-80 203.039,-64.0218 214.033,-65.7629 250,-52 255.356,-49.9506 261.057,-47.6197 266.427,-45.3551"/>
</g>
<!-- layoutA&#45;&gt;layoutB -->
<g id="edge8" class="edge"><title>layoutA&#45;&gt;layoutB</title>
<path fill="none" stroke="black" d="M240.955,-88.7646C236.297,-80.4043 230.509,-70.0159 225.266,-60.6059"/>
<polygon fill="black" stroke="black" points="228.192,-58.6656 220.267,-51.6334 222.077,-62.0726 228.192,-58.6656"/>
</g>
<!-- layoutA&#45;&gt;layoutC -->
<g id="edge10" class="edge"><title>layoutA&#45;&gt;layoutC</title>
<path fill="none" stroke="black" d="M259.277,-88.7646C264.174,-80.1948 270.289,-69.494 275.771,-59.9004"/>
<polygon fill="black" stroke="black" points="278.85,-61.5663 280.773,-51.1473 272.773,-58.0932 278.85,-61.5663"/>
</g>
<!-- algo -->
<g id="node11" class="node"><title>algo</title>
<polygon fill="lightblue" stroke="lightblue" points="431.05,-52 338.95,-52 338.95,-16 431.05,-16 431.05,-52"/>
<text text-anchor="middle" x="385" y="-31.8336" font-family="Verdana" font-size="8.00">float&#45;left&#45;algorithm</text>
</g>
<!-- layoutA&#45;&gt;algo -->
<g id="edge12" class="edge"><title>layoutA&#45;&gt;algo</title>
<path fill="none" stroke="black" d="M271.991,-93.5975C293.732,-82.3239 327.266,-64.9363 352.163,-52.0264"/>
</g>
</g>
</svg>
