<?xml version="1.0" encoding="UTF-8" standalone="no"?>
<!DOCTYPE svg PUBLIC "-//W3C//DTD SVG 1.1//EN"
 "http://www.w3.org/Graphics/SVG/1.1/DTD/svg11.dtd">
<!-- Generated by graphviz version 2.28.0 (20120118.1605)
 -->
<!-- Title: LayoutClient_UML Pages: 1 -->
<svg width="480pt" height="364pt"
 viewBox="0.00 0.00 480.00 364.00" xmlns="http://www.w3.org/2000/svg" xmlns:xlink="http://www.w3.org/1999/xlink">
<g id="graph1" class="graph" transform="scale(1 1) rotate(0) translate(4 360)">
<title>LayoutClient_UML</title>
<polygon fill="white" stroke="white" points="-4,5 -4,-360 477,-360 477,5 -4,5"/>
<g id="graph2" class="cluster"><title>cluster_0</title>
<polygon fill="none" stroke="black" points="8,-152 8,-348 327,-348 327,-152 8,-152"/>
</g>
<g id="graph3" class="cluster"><title>cluster_1</title>
<polygon fill="none" stroke="black" points="340,-8 340,-276 464,-276 464,-8 340,-8"/>
</g>
<!-- LayoutClient -->
<g id="node1" class="node"><title>LayoutClient</title>
<polygon fill="none" stroke="black" points="455.416,-268 390.584,-268 390.584,-232 455.416,-232 455.416,-268"/>
<text text-anchor="middle" x="423" y="-247.834" font-family="Verdana" font-size="8.00">LayoutClient</text>
</g>
<!-- AdvancedLayoutClient -->
<g id="node3" class="node"><title>AdvancedLayoutClient</title>
<polygon fill="none" stroke="black" points="454.028,-196 349.972,-196 349.972,-160 454.028,-160 454.028,-196"/>
<text text-anchor="middle" x="402" y="-175.834" font-family="Verdana" font-size="8.00">AdvancedLayoutClient</text>
</g>
<!-- LayoutClient&#45;&gt;AdvancedLayoutClient -->
<g id="edge12" class="edge"><title>LayoutClient&#45;&gt;AdvancedLayoutClient</title>
<path fill="none" stroke="black" d="M414.885,-221.949C412.277,-213.257 409.463,-203.876 407.131,-196.104"/>
<polygon fill="black" stroke="black" points="411.583,-223.124 417.809,-231.697 418.288,-221.113 411.583,-223.124"/>
</g>
<!-- LayoutContainer -->
<g id="node2" class="node"><title>LayoutContainer</title>
<polygon fill="none" stroke="black" points="435.372,-124 354.628,-124 354.628,-88 435.372,-88 435.372,-124"/>
<text text-anchor="middle" x="395" y="-103.834" font-family="Verdana" font-size="8.00">LayoutContainer</text>
</g>
<!-- VirtualLayoutContainer -->
<g id="node4" class="node"><title>VirtualLayoutContainer</title>
<polygon fill="none" stroke="black" points="456.091,-52 347.909,-52 347.909,-16 456.091,-16 456.091,-52"/>
<text text-anchor="middle" x="402" y="-31.8336" font-family="Verdana" font-size="8.00">VirtualLayoutContainer</text>
</g>
<!-- LayoutContainer&#45;&gt;VirtualLayoutContainer -->
<g id="edge16" class="edge"><title>LayoutContainer&#45;&gt;VirtualLayoutContainer</title>
<path fill="none" stroke="black" d="M397.733,-77.6651C398.595,-69.0537 399.521,-59.7913 400.29,-52.1043"/>
<polygon fill="black" stroke="black" points="394.243,-77.398 396.73,-87.6966 401.208,-78.0945 394.243,-77.398"/>
</g>
<!-- AdvancedLayoutClient&#45;&gt;LayoutContainer -->
<g id="edge14" class="edge"><title>AdvancedLayoutClient&#45;&gt;LayoutContainer</title>
<path fill="none" stroke="black" d="M399.267,-149.665C398.405,-141.054 397.479,-131.791 396.71,-124.104"/>
<polygon fill="black" stroke="black" points="395.792,-150.095 400.27,-159.697 402.757,-149.398 395.792,-150.095"/>
</g>
<!-- ILayoutClient -->
<g id="node5" class="node"><title>ILayoutClient</title>
<ellipse fill="#dbdbdb" stroke="#dbdbdb" cx="254" cy="-322" rx="41.0136" ry="18"/>
<text text-anchor="middle" x="254" y="-319.834" font-family="Verdana" font-size="8.00">ILayoutClient</text>
</g>
<!-- ILayoutClient&#45;&gt;LayoutClient -->
<g id="edge18" class="edge"><title>ILayoutClient&#45;&gt;LayoutClient</title>
<path fill="none" stroke="black" stroke-dasharray="1,5" d="M292.648,-304.992C322.259,-292.727 362.645,-275.999 390.582,-264.428"/>
<polygon fill="black" stroke="black" points="290.952,-301.906 283.052,-308.967 293.63,-308.373 290.952,-301.906"/>
</g>
<!-- IAdvancedLayoutClient -->
<g id="node6" class="node"><title>IAdvancedLayoutClient</title>
<ellipse fill="#dbdbdb" stroke="#dbdbdb" cx="254" cy="-250" rx="64.2698" ry="18"/>
<text text-anchor="middle" x="254" y="-247.834" font-family="Verdana" font-size="8.00">IAdvancedLayoutClient</text>
</g>
<!-- ILayoutClient&#45;&gt;IAdvancedLayoutClient -->
<g id="edge3" class="edge"><title>ILayoutClient&#45;&gt;IAdvancedLayoutClient</title>
<path fill="none" stroke="black" stroke-dasharray="5,2" d="M254,-293.665C254,-285.054 254,-275.791 254,-268.104"/>
<polygon fill="black" stroke="black" points="250.5,-293.697 254,-303.697 257.5,-293.697 250.5,-293.697"/>
</g>
<!-- ILayoutContainer -->
<g id="node7" class="node"><title>ILayoutContainer</title>
<ellipse fill="#dbdbdb" stroke="#dbdbdb" cx="67" cy="-250" rx="50.2884" ry="18"/>
<text text-anchor="middle" x="67" y="-247.834" font-family="Verdana" font-size="8.00">ILayoutContainer</text>
</g>
<!-- ILayoutClient&#45;&gt;ILayoutContainer -->
<g id="edge5" class="edge"><title>ILayoutClient&#45;&gt;ILayoutContainer</title>
<path fill="none" stroke="black" stroke-dasharray="5,2" d="M213.978,-306.018C180.21,-293.378 132.423,-275.49 100.609,-263.581"/>
<polygon fill="black" stroke="black" points="212.947,-309.37 223.539,-309.597 215.401,-302.814 212.947,-309.37"/>
</g>
<!-- IAdvancedLayoutClient&#45;&gt;AdvancedLayoutClient -->
<g id="edge20" class="edge"><title>IAdvancedLayoutClient&#45;&gt;AdvancedLayoutClient</title>
<path fill="none" stroke="black" stroke-dasharray="1,5" d="M294.611,-229.792C316.943,-219.229 344.408,-206.239 365.973,-196.04"/>
<polygon fill="black" stroke="black" points="292.93,-226.715 285.387,-234.155 295.923,-233.043 292.93,-226.715"/>
</g>
<!-- IScrollableLayout -->
<g id="node8" class="node"><title>IScrollableLayout</title>
<ellipse fill="#dbdbdb" stroke="#dbdbdb" cx="81" cy="-178" rx="50.4203" ry="18"/>
<text text-anchor="middle" x="81" y="-175.834" font-family="Verdana" font-size="8.00">IScrollableLayout</text>
</g>
<!-- IAdvancedLayoutClient&#45;&gt;IScrollableLayout -->
<g id="edge9" class="edge"><title>IAdvancedLayoutClient&#45;&gt;IScrollableLayout</title>
<path fill="none" stroke="black" stroke-dasharray="5,2" d="M209.538,-231.01C179.365,-218.801 140.176,-202.944 113.04,-191.964"/>
<polygon fill="black" stroke="black" points="208.408,-234.328 218.991,-234.834 211.034,-227.839 208.408,-234.328"/>
</g>
<!-- ILayoutContainer&#45;&gt;LayoutContainer -->
<g id="edge22" class="edge"><title>ILayoutContainer&#45;&gt;LayoutContainer</title>
<path fill="none" stroke="black" stroke-dasharray="1,5" d="M107.128,-231.627C170.461,-204.209 292.838,-151.229 355.67,-124.027"/>
<polygon fill="black" stroke="black" points="105.644,-228.456 97.8574,-235.641 108.425,-234.88 105.644,-228.456"/>
</g>
<!-- ILayoutContainer&#45;&gt;IScrollableLayout -->
<g id="edge7" class="edge"><title>ILayoutContainer&#45;&gt;IScrollableLayout</title>
<path fill="none" stroke="black" stroke-dasharray="5,2" d="M72.467,-221.665C74.1893,-213.054 76.0417,-203.791 77.5791,-196.104"/>
<polygon fill="black" stroke="black" points="68.9899,-221.204 70.4607,-231.697 75.8539,-222.577 68.9899,-221.204"/>
</g>
<!-- IScrollableLayout&#45;&gt;LayoutContainer -->
<g id="edge24" class="edge"><title>IScrollableLayout&#45;&gt;LayoutContainer</title>
<path fill="none" stroke="black" stroke-dasharray="1,5" d="M131.256,-164.8C148.584,-160.656 168.126,-156.052 186,-152 244.46,-138.749 312.338,-124.308 354.486,-115.452"/>
<polygon fill="black" stroke="black" points="130.247,-161.443 121.34,-167.179 131.88,-168.25 130.247,-161.443"/>
</g>
</g>
</svg>
