<?xml version="1.0" encoding="UTF-8" standalone="no"?>
<!DOCTYPE svg PUBLIC "-//W3C//DTD SVG 1.1//EN"
 "http://www.w3.org/Graphics/SVG/1.1/DTD/svg11.dtd">
<!-- Generated by graphviz version 2.28.0 (20120118.1605)
 -->
<!-- Title: Multicore Pages: 1 -->
<svg width="320pt" height="140pt"
 viewBox="0.00 0.00 320.00 140.00" xmlns="http://www.w3.org/2000/svg" xmlns:xlink="http://www.w3.org/1999/xlink">
<g id="graph1" class="graph" transform="scale(1 1) rotate(0) translate(4 136)">
<title>Multicore</title>
<polygon fill="white" stroke="white" points="-4,5 -4,-136 317,-136 317,5 -4,5"/>
<!-- ChildFacade1 -->
<g id="node1" class="node"><title>ChildFacade1</title>
<polygon fill="none" stroke="black" points="311.344,-132 242.656,-132 242.656,-96 311.344,-96 311.344,-132"/>
<text text-anchor="middle" x="277" y="-111.834" font-family="Verdana" font-size="8.00">ChildFacade1</text>
</g>
<!-- ChildFacade2 -->
<g id="node2" class="node"><title>ChildFacade2</title>
<polygon fill="none" stroke="black" points="205.344,-36 136.656,-36 136.656,-0 205.344,-0 205.344,-36"/>
<text text-anchor="middle" x="171" y="-15.8336" font-family="Verdana" font-size="8.00">ChildFacade2</text>
</g>
<!-- ChildFacade3 -->
<g id="node3" class="node"><title>ChildFacade3</title>
<polygon fill="none" stroke="black" points="311.344,-36 242.656,-36 242.656,-0 311.344,-0 311.344,-36"/>
<text text-anchor="middle" x="277" y="-15.8336" font-family="Verdana" font-size="8.00">ChildFacade3</text>
</g>
<!-- ChildFacade2&#45;&gt;ChildFacade3 -->
<g id="edge16" class="edge"><title>ChildFacade2&#45;&gt;ChildFacade3</title>
<path fill="none" stroke="black" d="M205.479,-18C214.107,-18 223.519,-18 232.573,-18"/>
<polygon fill="black" stroke="black" points="232.584,-21.5001 242.584,-18 232.584,-14.5001 232.584,-21.5001"/>
</g>
<!-- AppFacade -->
<g id="node4" class="node"><title>AppFacade</title>
<polygon fill="none" stroke="black" points="50,-103 0.0913977,-85 50,-67 99.9086,-85 50,-103"/>
<polyline fill="none" stroke="black" points="11.3797,-89.0712 11.3797,-80.9288 "/>
<polyline fill="none" stroke="black" points="38.7117,-71.0712 61.2883,-71.0712 "/>
<polyline fill="none" stroke="black" points="88.6203,-80.9288 88.6203,-89.0712 "/>
<polyline fill="none" stroke="black" points="61.2883,-98.9288 38.7117,-98.9288 "/>
<text text-anchor="middle" x="50" y="-82.8336" font-family="Verdana" font-size="8.00">AppFacade</text>
</g>
<!-- AppFacade&#45;&gt;ChildFacade1 -->
<g id="edge12" class="edge"><title>AppFacade&#45;&gt;ChildFacade1</title>
<path fill="none" stroke="black" d="M69.0552,-96.3806C85.7079,-106.159 111.489,-119.521 136,-125 167.892,-132.129 204.768,-128.777 232.666,-123.965"/>
<polygon fill="black" stroke="black" points="233.316,-127.404 242.512,-122.143 232.042,-120.521 233.316,-127.404"/>
</g>
<!-- AppFacade&#45;&gt;ChildFacade2 -->
<g id="edge14" class="edge"><title>AppFacade&#45;&gt;ChildFacade2</title>
<path fill="none" stroke="black" d="M70.1194,-74.2353C85.9583,-65.3176 109.026,-52.3301 129.003,-41.0826"/>
<polygon fill="black" stroke="black" points="130.93,-44.014 137.927,-36.0581 127.496,-37.9144 130.93,-44.014"/>
</g>
<!-- Channels -->
<g id="node5" class="node"><title>Channels</title>
<ellipse fill="none" stroke="black" cx="171" cy="-85" rx="31.4276" ry="31.4276"/>
<text text-anchor="middle" x="171" y="-82.8336" font-family="Verdana" font-size="8.00">Channels</text>
</g>
<!-- AppFacade&#45;&gt;Channels -->
<g id="edge2" class="edge"><title>AppFacade&#45;&gt;Channels</title>
<path fill="none" stroke="black" d="M83.2031,-78.9258C97.5203,-78.1643 114.53,-78.0464 129.681,-78.5719"/>
<polygon fill="black" stroke="black" points="129.667,-82.0749 139.817,-79.0386 129.989,-75.0823 129.667,-82.0749"/>
</g>
<!-- Channels&#45;&gt;ChildFacade1 -->
<g id="edge4" class="edge"><title>Channels&#45;&gt;ChildFacade1</title>
<path fill="none" stroke="blue" d="M201.524,-93.2327C214.255,-96.7827 229.212,-100.953 242.369,-104.622"/>
</g>
<!-- Channels&#45;&gt;ChildFacade2 -->
<g id="edge6" class="edge"><title>Channels&#45;&gt;ChildFacade2</title>
<path fill="none" stroke="blue" d="M171,-53.6469C171,-47.7841 171,-41.9214 171,-36.0586"/>
</g>
<!-- Channels&#45;&gt;ChildFacade3 -->
<g id="edge8" class="edge"><title>Channels&#45;&gt;ChildFacade3</title>
<path fill="none" stroke="blue" d="M197.708,-68.4382C212.986,-58.5954 232.374,-46.1052 248.034,-36.0167"/>
</g>
<!-- Channels&#45;&gt;AppFacade -->
<g id="edge10" class="edge"><title>Channels&#45;&gt;AppFacade</title>
<path fill="none" stroke="blue" d="M139.817,-90.9614C122.524,-91.9738 100.824,-92.0114 83.2031,-91.0742"/>
</g>
</g>
</svg>
