<?xml version="1.0" encoding="UTF-8" standalone="no"?>
<!DOCTYPE svg PUBLIC "-//W3C//DTD SVG 1.1//EN"
 "http://www.w3.org/Graphics/SVG/1.1/DTD/svg11.dtd">
<!-- Generated by graphviz version 2.28.0 (20120118.1605)
 -->
<!-- Title: MVC_UML Pages: 1 -->
<svg width="369pt" height="332pt"
 viewBox="0.00 0.00 369.00 332.00" xmlns="http://www.w3.org/2000/svg" xmlns:xlink="http://www.w3.org/1999/xlink">
<g id="graph1" class="graph" transform="scale(1 1) rotate(0) translate(4 328)">
<title>MVC_UML</title>
<polygon fill="white" stroke="white" points="-4,5 -4,-328 366,-328 366,5 -4,5"/>
<!-- Mediator -->
<g id="node1" class="node"><title>Mediator</title>
<polygon fill="none" stroke="black" points="198,-36 144,-36 144,-0 198,-0 198,-36"/>
<text text-anchor="middle" x="171" y="-15.8336" font-family="Verdana" font-size="8.00">Mediator</text>
</g>
<!-- Proxy -->
<g id="node2" class="node"><title>Proxy</title>
<polygon fill="none" stroke="black" points="64,-108 10,-108 10,-72 64,-72 64,-108"/>
<text text-anchor="middle" x="37" y="-87.8336" font-family="Verdana" font-size="8.00">Proxy</text>
</g>
<!-- EditableProxy -->
<g id="node3" class="node"><title>EditableProxy</title>
<polygon fill="none" stroke="black" points="71.9706,-36 2.02943,-36 2.02943,-0 71.9706,-0 71.9706,-36"/>
<text text-anchor="middle" x="37" y="-15.8336" font-family="Verdana" font-size="8.00">EditableProxy</text>
</g>
<!-- Proxy&#45;&gt;EditableProxy -->
<g id="edge30" class="edge"><title>Proxy&#45;&gt;EditableProxy</title>
<path fill="none" stroke="black" d="M37,-61.6651C37,-53.0537 37,-43.7913 37,-36.1043"/>
<polygon fill="black" stroke="black" points="33.5001,-61.6966 37,-71.6966 40.5001,-61.6967 33.5001,-61.6966"/>
</g>
<!-- MVCActor -->
<g id="node4" class="node"><title>MVCActor</title>
<polygon fill="none" stroke="black" points="197.142,-108 142.858,-108 142.858,-72 197.142,-72 197.142,-108"/>
<text text-anchor="middle" x="170" y="-87.8336" font-family="Verdana" font-size="8.00">MVCActor</text>
</g>
<!-- MVCActor&#45;&gt;Mediator -->
<g id="edge24" class="edge"><title>MVCActor&#45;&gt;Mediator</title>
<path fill="none" stroke="black" d="M170.39,-61.6651C170.514,-53.0537 170.646,-43.7913 170.756,-36.1043"/>
<polygon fill="black" stroke="black" points="166.89,-61.6476 170.247,-71.6966 173.89,-61.7477 166.89,-61.6476"/>
</g>
<!-- MVCNotifier -->
<g id="node5" class="node"><title>MVCNotifier</title>
<polygon fill="none" stroke="black" points="68.3783,-180 5.62166,-180 5.62166,-144 68.3783,-144 68.3783,-180"/>
<text text-anchor="middle" x="37" y="-159.834" font-family="Verdana" font-size="8.00">MVCNotifier</text>
</g>
<!-- MVCNotifier&#45;&gt;Proxy -->
<g id="edge28" class="edge"><title>MVCNotifier&#45;&gt;Proxy</title>
<path fill="none" stroke="black" d="M37,-133.665C37,-125.054 37,-115.791 37,-108.104"/>
<polygon fill="black" stroke="black" points="33.5001,-133.697 37,-143.697 40.5001,-133.697 33.5001,-133.697"/>
</g>
<!-- MVCNotifier&#45;&gt;MVCActor -->
<g id="edge22" class="edge"><title>MVCNotifier&#45;&gt;MVCActor</title>
<path fill="none" stroke="black" d="M77.5934,-139.635C98.7232,-128.514 123.989,-115.216 142.757,-105.338"/>
<polygon fill="black" stroke="black" points="75.7382,-136.656 68.5191,-144.411 78.9985,-142.851 75.7382,-136.656"/>
</g>
<!-- Signals -->
<g id="node6" class="node"><title>Signals</title>
<polygon fill="none" stroke="black" points="63,-252 9,-252 9,-216 63,-216 63,-252"/>
<text text-anchor="middle" x="36" y="-231.834" font-family="Verdana" font-size="8.00">Signals</text>
</g>
<!-- Facade -->
<g id="node7" class="node"><title>Facade</title>
<polygon fill="none" stroke="black" points="324,-252 287.616,-234 324,-216 360.384,-234 324,-252"/>
<polyline fill="none" stroke="black" points="298.372,-239.321 298.372,-228.679 "/>
<polyline fill="none" stroke="black" points="313.244,-221.321 334.756,-221.321 "/>
<polyline fill="none" stroke="black" points="349.628,-228.679 349.628,-239.321 "/>
<polyline fill="none" stroke="black" points="334.756,-246.679 313.244,-246.679 "/>
<text text-anchor="middle" x="324" y="-231.834" font-family="Verdana" font-size="8.00">Facade</text>
</g>
<!-- IMVCCore -->
<g id="node8" class="node"><title>IMVCCore</title>
<ellipse fill="#dbdbdb" stroke="#dbdbdb" cx="315" cy="-162" rx="32.954" ry="18"/>
<text text-anchor="middle" x="315" y="-159.834" font-family="Verdana" font-size="8.00">IMVCCore</text>
</g>
<!-- IMVCCoreActor -->
<g id="node11" class="node"><title>IMVCCoreActor</title>
<ellipse fill="#dbdbdb" stroke="#dbdbdb" cx="315" cy="-90" rx="45.3101" ry="18"/>
<text text-anchor="middle" x="315" y="-87.8336" font-family="Verdana" font-size="8.00">IMVCCoreActor</text>
</g>
<!-- IMVCCore&#45;&gt;IMVCCoreActor -->
<g id="edge10" class="edge"><title>IMVCCore&#45;&gt;IMVCCoreActor</title>
<path fill="none" stroke="black" stroke-dasharray="5,2" d="M315,-133.665C315,-125.054 315,-115.791 315,-108.104"/>
<polygon fill="black" stroke="black" points="311.5,-133.697 315,-143.697 318.5,-133.697 311.5,-133.697"/>
</g>
<!-- IMVCNotifier -->
<g id="node9" class="node"><title>IMVCNotifier</title>
<ellipse fill="#dbdbdb" stroke="#dbdbdb" cx="175" cy="-234" rx="39.5806" ry="18"/>
<text text-anchor="middle" x="175" y="-231.834" font-family="Verdana" font-size="8.00">IMVCNotifier</text>
</g>
<!-- IMVCNotifier&#45;&gt;MVCNotifier -->
<g id="edge26" class="edge"><title>IMVCNotifier&#45;&gt;MVCNotifier</title>
<path fill="none" stroke="black" stroke-dasharray="5,2" d="M140.639,-215.57C118.515,-204.348 89.9761,-189.872 68.4492,-178.952"/>
<polygon fill="black" stroke="black" points="139.187,-218.759 149.689,-220.161 142.354,-212.516 139.187,-218.759"/>
</g>
<!-- IMVCNotifier&#45;&gt;IMVCCore -->
<g id="edge6" class="edge"><title>IMVCNotifier&#45;&gt;IMVCCore</title>
<path fill="none" stroke="black" stroke-dasharray="5,2" d="M209.63,-215.685C235.067,-202.966 268.956,-186.022 291.35,-174.825"/>
<polygon fill="black" stroke="black" points="208.057,-212.558 200.678,-220.161 211.188,-218.819 208.057,-212.558"/>
</g>
<!-- IMVCActor -->
<g id="node10" class="node"><title>IMVCActor</title>
<ellipse fill="#dbdbdb" stroke="#dbdbdb" cx="175" cy="-162" rx="34.1389" ry="18"/>
<text text-anchor="middle" x="175" y="-159.834" font-family="Verdana" font-size="8.00">IMVCActor</text>
</g>
<!-- IMVCNotifier&#45;&gt;IMVCActor -->
<g id="edge8" class="edge"><title>IMVCNotifier&#45;&gt;IMVCActor</title>
<path fill="none" stroke="black" stroke-dasharray="5,2" d="M175,-205.665C175,-197.054 175,-187.791 175,-180.104"/>
<polygon fill="black" stroke="black" points="171.5,-205.697 175,-215.697 178.5,-205.697 171.5,-205.697"/>
</g>
<!-- IMVCActor&#45;&gt;MVCActor -->
<g id="edge20" class="edge"><title>IMVCActor&#45;&gt;MVCActor</title>
<path fill="none" stroke="black" stroke-dasharray="5,2" d="M173.048,-133.665C172.432,-125.054 171.771,-115.791 171.222,-108.104"/>
<polygon fill="black" stroke="black" points="169.56,-133.971 173.764,-143.697 176.543,-133.473 169.56,-133.971"/>
</g>
<!-- IMVCActor&#45;&gt;IMVCCoreActor -->
<g id="edge12" class="edge"><title>IMVCActor&#45;&gt;IMVCCoreActor</title>
<path fill="none" stroke="black" stroke-dasharray="5,2" d="M208.273,-144.364C232.592,-132.204 265.161,-115.919 287.9,-104.55"/>
<polygon fill="black" stroke="black" points="206.446,-141.364 199.067,-148.967 209.576,-147.625 206.446,-141.364"/>
</g>
<!-- IDisposable -->
<g id="node12" class="node"><title>IDisposable</title>
<ellipse fill="#dbdbdb" stroke="#dbdbdb" cx="182" cy="-306" rx="37.1018" ry="18"/>
<text text-anchor="middle" x="182" y="-303.834" font-family="Verdana" font-size="8.00">IDisposable</text>
</g>
<!-- IDisposable&#45;&gt;Signals -->
<g id="edge16" class="edge"><title>IDisposable&#45;&gt;Signals</title>
<path fill="none" stroke="black" stroke-dasharray="5,2" d="M147.51,-288.464C121.718,-276.097 86.9386,-259.423 63.1193,-248.002"/>
<polygon fill="black" stroke="black" points="146.038,-291.64 156.569,-292.807 149.065,-285.328 146.038,-291.64"/>
</g>
<!-- IDisposable&#45;&gt;Facade -->
<g id="edge14" class="edge"><title>IDisposable&#45;&gt;Facade</title>
<path fill="none" stroke="black" stroke-dasharray="5,2" d="M216.294,-288.094C244.882,-274.002 284.42,-254.511 306.779,-243.489"/>
<polygon fill="black" stroke="black" points="214.482,-285.086 207.06,-292.647 217.577,-291.364 214.482,-285.086"/>
</g>
<!-- IDisposable&#45;&gt;IMVCNotifier -->
<g id="edge2" class="edge"><title>IDisposable&#45;&gt;IMVCNotifier</title>
<path fill="none" stroke="black" stroke-dasharray="5,2" d="M179.267,-277.665C178.405,-269.054 177.479,-259.791 176.71,-252.104"/>
<polygon fill="black" stroke="black" points="175.792,-278.095 180.27,-287.697 182.757,-277.398 175.792,-278.095"/>
</g>
<!-- IDisablable -->
<g id="node13" class="node"><title>IDisablable</title>
<ellipse fill="#dbdbdb" stroke="#dbdbdb" cx="36" cy="-306" rx="36.2897" ry="18"/>
<text text-anchor="middle" x="36" y="-303.834" font-family="Verdana" font-size="8.00">IDisablable</text>
</g>
<!-- IDisablable&#45;&gt;Signals -->
<g id="edge18" class="edge"><title>IDisablable&#45;&gt;Signals</title>
<path fill="none" stroke="black" stroke-dasharray="5,2" d="M36,-277.665C36,-269.054 36,-259.791 36,-252.104"/>
<polygon fill="black" stroke="black" points="32.5001,-277.697 36,-287.697 39.5001,-277.697 32.5001,-277.697"/>
</g>
<!-- IDisablable&#45;&gt;IMVCNotifier -->
<g id="edge4" class="edge"><title>IDisablable&#45;&gt;IMVCNotifier</title>
<path fill="none" stroke="black" stroke-dasharray="5,2" d="M69.4887,-288.135C94.0201,-275.781 126.822,-259.262 149.303,-247.941"/>
<polygon fill="black" stroke="black" points="67.8876,-285.023 60.5304,-292.647 71.0361,-291.275 67.8876,-285.023"/>
</g>
</g>
</svg>
