<?xml version="1.0" encoding="UTF-8" standalone="no"?>
<!DOCTYPE svg PUBLIC "-//W3C//DTD SVG 1.1//EN"
 "http://www.w3.org/Graphics/SVG/1.1/DTD/svg11.dtd">
<!-- Generated by graphviz version 2.28.0 (20120118.1605)
 -->
<!-- Title: MVC_UML Pages: 1 -->
<svg width="158pt" height="116pt"
 viewBox="0.00 0.00 158.00 116.00" xmlns="http://www.w3.org/2000/svg" xmlns:xlink="http://www.w3.org/1999/xlink">
<g id="graph1" class="graph" transform="scale(1 1) rotate(0) translate(4 112)">
<title>MVC_UML</title>
<polygon fill="white" stroke="white" points="-4,5 -4,-112 155,-112 155,5 -4,5"/>
<!-- Facade -->
<g id="node1" class="node"><title>Facade</title>
<polygon fill="none" stroke="black" points="103,-108 49,-108 49,-72 103,-72 103,-108"/>
<text text-anchor="middle" x="76" y="-87.8336" font-family="Verdana" font-size="8.00">Facade</text>
</g>
<!-- ParentFacade -->
<g id="node3" class="node"><title>ParentFacade</title>
<polygon fill="none" stroke="black" points="68.1757,-36 -0.175684,-36 -0.175684,-0 68.1757,-0 68.1757,-36"/>
<text text-anchor="middle" x="34" y="-15.8336" font-family="Verdana" font-size="8.00">ParentFacade</text>
</g>
<!-- Facade&#45;&gt;ParentFacade -->
<g id="edge2" class="edge"><title>Facade&#45;&gt;ParentFacade</title>
<path fill="none" stroke="black" d="M60.447,-63.0783C55.0458,-54.0763 49.1282,-44.2136 44.2626,-36.1043"/>
<polygon fill="black" stroke="black" points="57.4717,-64.9224 65.618,-71.6966 63.4742,-61.3209 57.4717,-64.9224"/>
</g>
<!-- ChildFacade -->
<g id="node5" class="node"><title>ChildFacade</title>
<polygon fill="none" stroke="black" points="150.32,-36 87.6795,-36 87.6795,-0 150.32,-0 150.32,-36"/>
<text text-anchor="middle" x="119" y="-15.8336" font-family="Verdana" font-size="8.00">ChildFacade</text>
</g>
<!-- Facade&#45;&gt;ChildFacade -->
<g id="edge4" class="edge"><title>Facade&#45;&gt;ChildFacade</title>
<path fill="none" stroke="black" d="M91.9233,-63.0783C97.4531,-54.0763 103.512,-44.2136 108.493,-36.1043"/>
<polygon fill="black" stroke="black" points="88.8812,-61.3439 86.6292,-71.6966 94.8457,-65.0078 88.8812,-61.3439"/>
</g>
</g>
</svg>
