<?xml version="1.0" encoding="UTF-8" standalone="no"?>
<!DOCTYPE svg PUBLIC "-//W3C//DTD SVG 1.1//EN"
 "http://www.w3.org/Graphics/SVG/1.1/DTD/svg11.dtd">
<!-- Generated by graphviz version 2.28.0 (20120118.1605)
 -->
<!-- Title: VirtualLayoutActors Pages: 1 -->
<svg width="579pt" height="316pt"
 viewBox="0.00 0.00 579.00 316.00" xmlns="http://www.w3.org/2000/svg" xmlns:xlink="http://www.w3.org/1999/xlink">
<g id="graph1" class="graph" transform="scale(1 1) rotate(0) translate(4 312)">
<title>VirtualLayoutActors</title>
<polygon fill="white" stroke="white" points="-4,5 -4,-312 576,-312 576,5 -4,5"/>
<g id="graph2" class="cluster"><title>cluster_0</title>
<polygon fill="lightgrey" stroke="lightgrey" points="328,-152 328,-300 563,-300 563,-152 328,-152"/>
<text text-anchor="middle" x="445.5" y="-286" font-family="Verdana" font-size="10.00">Application</text>
</g>
<g id="graph3" class="cluster"><title>cluster_1</title>
<polygon fill="none" stroke="blue" points="8,-8 8,-226 320,-226 320,-8 8,-8"/>
<text text-anchor="middle" x="164" y="-212" font-family="Verdana" font-size="10.00">LayoutClients</text>
</g>
<!-- contA -->
<g id="node2" class="node"><title>contA</title>
<ellipse fill="white" stroke="white" cx="408" cy="-252" rx="35.3827" ry="18"/>
<text text-anchor="middle" x="408" y="-249.834" font-family="Verdana" font-size="8.00">MenuBar A</text>
</g>
<!-- buttonB -->
<g id="node3" class="node"><title>buttonB</title>
<ellipse fill="white" stroke="white" cx="366" cy="-178" rx="30.2267" ry="18"/>
<text text-anchor="middle" x="366" y="-175.834" font-family="Verdana" font-size="8.00">Button B</text>
</g>
<!-- contA&#45;&gt;buttonB -->
<g id="edge3" class="edge"><title>contA&#45;&gt;buttonB</title>
<path fill="none" stroke="black" d="M398.47,-234.662C393.207,-225.641 386.558,-214.243 380.65,-204.114"/>
<polygon fill="black" stroke="black" points="383.555,-202.147 375.493,-195.273 377.508,-205.675 383.555,-202.147"/>
</g>
<!-- buttonC -->
<g id="node4" class="node"><title>buttonC</title>
<ellipse fill="white" stroke="white" cx="445" cy="-178" rx="30.3172" ry="18"/>
<text text-anchor="middle" x="445" y="-175.834" font-family="Verdana" font-size="8.00">Button C</text>
</g>
<!-- contA&#45;&gt;buttonC -->
<g id="edge5" class="edge"><title>contA&#45;&gt;buttonC</title>
<path fill="none" stroke="black" d="M416.582,-234.301C421.111,-225.486 426.767,-214.48 431.838,-204.612"/>
<polygon fill="black" stroke="black" points="435.007,-206.103 436.465,-195.609 428.781,-202.903 435.007,-206.103"/>
</g>
<!-- buttonD -->
<g id="node5" class="node"><title>buttonD</title>
<ellipse fill="white" stroke="white" cx="524" cy="-178" rx="30.3372" ry="18"/>
<text text-anchor="middle" x="524" y="-175.834" font-family="Verdana" font-size="8.00">Button D</text>
</g>
<!-- contA&#45;&gt;buttonD -->
<g id="edge7" class="edge"><title>contA&#45;&gt;buttonD</title>
<path fill="none" stroke="black" d="M440.455,-244.508C454.639,-240.652 470.973,-234.755 484,-226 492.844,-220.056 500.854,-211.637 507.342,-203.563"/>
<polygon fill="black" stroke="black" points="510.282,-205.479 513.524,-195.392 504.699,-201.255 510.282,-205.479"/>
</g>
<!-- layoutA -->
<g id="node10" class="node"><title>layoutA</title>
<ellipse fill="lightgrey" stroke="black" cx="274" cy="-178" rx="37.5724" ry="18"/>
<text text-anchor="middle" x="274" y="-175.834" font-family="Verdana" font-size="8.00">Container A</text>
</g>
<!-- contA&#45;&gt;layoutA -->
<g id="edge22" class="edge"><title>contA&#45;&gt;layoutA</title>
<path fill="none" stroke="black" stroke-dasharray="5,2" d="M375.063,-244.939C358.951,-241.063 339.696,-235.026 324,-226 309.954,-217.923 296.721,-205.163 287.401,-194.976"/>
</g>
<!-- layoutB -->
<g id="node12" class="node"><title>layoutB</title>
<ellipse fill="lightgrey" stroke="black" cx="281" cy="-106" rx="30.3695" ry="18"/>
<text text-anchor="middle" x="281" y="-103.834" font-family="Verdana" font-size="8.00">Layout B</text>
</g>
<!-- buttonB&#45;&gt;layoutB -->
<g id="edge24" class="edge"><title>buttonB&#45;&gt;layoutB</title>
<path fill="none" stroke="black" stroke-dasharray="5,2" d="M348.799,-162.834C334.052,-150.69 312.915,-133.283 298.175,-121.144"/>
</g>
<!-- layoutC -->
<g id="node13" class="node"><title>layoutC</title>
<ellipse fill="none" stroke="black" cx="184" cy="-34" rx="30.4601" ry="18"/>
<text text-anchor="middle" x="184" y="-31.8336" font-family="Verdana" font-size="8.00">Layout C</text>
</g>
<!-- buttonC&#45;&gt;layoutC -->
<g id="edge26" class="edge"><title>buttonC&#45;&gt;layoutC</title>
<path fill="none" stroke="black" stroke-dasharray="5,2" d="M428.095,-162.885C404.866,-143.991 361.255,-110.28 320,-88 300.323,-77.3735 243.132,-56.2066 209.508,-44.0848"/>
</g>
<!-- layoutD -->
<g id="node14" class="node"><title>layoutD</title>
<ellipse fill="none" stroke="black" cx="275" cy="-34" rx="30.4789" ry="18"/>
<text text-anchor="middle" x="275" y="-31.8336" font-family="Verdana" font-size="8.00">Layout D</text>
</g>
<!-- buttonD&#45;&gt;layoutD -->
<g id="edge28" class="edge"><title>buttonD&#45;&gt;layoutD</title>
<path fill="none" stroke="black" stroke-dasharray="5,2" d="M507.771,-162.555C485.867,-143.594 445.073,-110.13 406,-88 371.523,-68.4734 328.411,-52.4907 301.279,-43.3518"/>
</g>
<!-- layoutE -->
<g id="node11" class="node"><title>layoutE</title>
<ellipse fill="none" stroke="black" cx="178" cy="-106" rx="54.2696" ry="18"/>
<text text-anchor="middle" x="178" y="-103.834" font-family="Verdana" font-size="8.00">Virtual Container E</text>
</g>
<!-- layoutA&#45;&gt;layoutE -->
<g id="edge12" class="edge"><title>layoutA&#45;&gt;layoutE</title>
<path fill="none" stroke="black" d="M254.109,-162.496C240.795,-152.788 223.026,-139.832 208.006,-128.88"/>
<polygon fill="black" stroke="black" points="209.677,-125.766 199.535,-122.703 205.553,-131.422 209.677,-125.766"/>
</g>
<!-- layoutA&#45;&gt;layoutB -->
<g id="edge10" class="edge"><title>layoutA&#45;&gt;layoutB</title>
<path fill="none" stroke="black" d="M275.73,-159.697C276.502,-151.983 277.429,-142.712 278.289,-134.112"/>
<polygon fill="black" stroke="black" points="281.777,-134.403 279.29,-124.104 274.812,-133.706 281.777,-134.403"/>
</g>
<!-- algo1 -->
<g id="node15" class="node"><title>algo1</title>
<polygon fill="lightblue" stroke="lightblue" points="218.05,-196 125.95,-196 125.95,-160 218.05,-160 218.05,-196"/>
<text text-anchor="middle" x="172" y="-175.834" font-family="Verdana" font-size="8.00">float&#45;left&#45;algorithm</text>
</g>
<!-- layoutA&#45;&gt;algo1 -->
<g id="edge18" class="edge"><title>layoutA&#45;&gt;algo1</title>
<path fill="none" stroke="black" d="M236.522,-178C230.421,-178 224.32,-178 218.219,-178"/>
</g>
<!-- layoutE&#45;&gt;layoutC -->
<g id="edge14" class="edge"><title>layoutE&#45;&gt;layoutC</title>
<path fill="none" stroke="black" d="M179.483,-87.6966C180.144,-79.9827 180.939,-70.7125 181.676,-62.1124"/>
<polygon fill="black" stroke="black" points="185.167,-62.3667 182.534,-52.1043 178.193,-61.7689 185.167,-62.3667"/>
</g>
<!-- layoutE&#45;&gt;layoutD -->
<g id="edge16" class="edge"><title>layoutE&#45;&gt;layoutD</title>
<path fill="none" stroke="black" d="M199.527,-89.4647C213.805,-79.1616 232.654,-65.5589 247.944,-54.5252"/>
<polygon fill="black" stroke="black" points="250.412,-57.06 256.473,-48.37 246.316,-51.3837 250.412,-57.06"/>
</g>
<!-- algo2 -->
<g id="node16" class="node"><title>algo2</title>
<polygon fill="lightblue" stroke="lightblue" points="108.217,-196 15.783,-196 15.783,-160 108.217,-160 108.217,-196"/>
<text text-anchor="middle" x="62" y="-175.834" font-family="Verdana" font-size="8.00">float&#45;top&#45;algorithm</text>
</g>
<!-- layoutE&#45;&gt;algo2 -->
<g id="edge20" class="edge"><title>layoutE&#45;&gt;algo2</title>
<path fill="none" stroke="black" d="M153.067,-122.046C134.653,-133.158 109.56,-148.3 90.3768,-159.876"/>
</g>
</g>
</svg>
